<svg width="36" height="36" viewBox="0 0 36 36" fill="none" xmlns="http://www.w3.org/2000/svg">
<path d="M27.418 28.7188C27.7695 29.082 28.332 29.1055 28.6953 28.7188C29.0703 28.332 29.0469 27.8047 28.6953 27.4414L9.10156 7.85938C8.75 7.50781 8.16406 7.50781 7.8125 7.85938C7.47266 8.19922 7.47266 8.79688 7.8125 9.13672L27.418 28.7188ZM18.3125 8.52734C16.2734 8.52734 14.4219 8.87891 12.6992 9.45312L14.2461 10.9883C15.5352 10.6016 16.8594 10.3789 18.3125 10.3789C26.0234 10.3789 32.2695 17.1758 32.2695 18.5703C32.2695 19.5195 30.2188 22.0742 26.9727 24.0664L28.4141 25.5078C32.1172 23.1055 34.3203 19.9531 34.3203 18.5703C34.3203 16.168 27.7812 8.52734 18.3125 8.52734ZM18.3125 28.6133C20.4922 28.6133 22.4844 28.2266 24.3008 27.6055L22.7656 26.0703C21.3711 26.5039 19.8945 26.7617 18.3125 26.7617C10.5898 26.7617 4.34375 20.2227 4.34375 18.5703C4.34375 17.75 6.51172 15.0195 9.96875 12.9453L8.51562 11.4922C4.61328 13.9062 2.29297 17.1523 2.29297 18.5703C2.29297 20.9609 8.96094 28.6133 18.3125 28.6133ZM24.3242 21.1367C24.6875 20.3516 24.8867 19.4727 24.8867 18.5703C24.8867 14.9023 21.957 12.0078 18.3125 12.0078C17.3867 12.0078 16.5195 12.207 15.7344 12.5469L24.3242 21.1367ZM18.3125 25.1328C19.3438 25.1328 20.3164 24.875 21.1836 24.4531L12.3945 15.6641C11.9609 16.5312 11.7148 17.5156 11.7148 18.5703C11.7266 22.1445 14.6445 25.1328 18.3125 25.1328Z" fill="#212121"/>
</svg>
