<svg width="36" height="36" viewBox="0 0 36 36" fill="none" xmlns="http://www.w3.org/2000/svg">
<path d="M18.3125 27.6133C27.7812 27.6133 34.3203 19.9609 34.3203 17.5703C34.3203 15.168 27.7695 7.52734 18.3125 7.52734C8.97266 7.52734 2.29297 15.168 2.29297 17.5703C2.29297 19.9609 8.96094 27.6133 18.3125 27.6133ZM18.3125 25.7617C10.5898 25.7617 4.34375 19.2227 4.34375 17.5703C4.34375 16.1758 10.5898 9.37891 18.3125 9.37891C26 9.37891 32.2695 16.1758 32.2695 17.5703C32.2695 19.2227 26 25.7617 18.3125 25.7617ZM18.3125 24.1328C21.957 24.1328 24.8867 21.1445 24.8867 17.5703C24.8867 13.9023 21.957 11.0078 18.3125 11.0078C14.6445 11.0078 11.7031 13.9023 11.7148 17.5703C11.7383 21.1445 14.6445 24.1328 18.3125 24.1328ZM18.3125 19.75C17.0938 19.75 16.1094 18.7656 16.1094 17.5703C16.1094 16.3633 17.0938 15.3906 18.3125 15.3906C19.5195 15.3906 20.5039 16.3633 20.5039 17.5703C20.5039 18.7656 19.5195 19.75 18.3125 19.75Z" fill="#212121"/>
</svg>
